<?xml version="1.0" standalone="no"?>
<!DOCTYPE svg PUBLIC "-//W3C//DTD SVG 20010904//EN"
 "http://www.w3.org/TR/2001/REC-SVG-20010904/DTD/svg10.dtd">
<svg version="1.0" xmlns="http://www.w3.org/2000/svg"
 width="181.000000pt" height="181.000000pt" viewBox="0 0 181.000000 181.000000"
 preserveAspectRatio="xMidYMid meet">
<metadata>
Created by potrace 1.11, written by Peter Selinger 2001-2013
</metadata>
<g transform="translate(0.000000,181.000000) scale(0.100000,-0.100000)"
fill="#000000" stroke="none">
<path d="M775 1803 c-219 -45 -364 -120 -498 -256 -139 -143 -227 -330 -241
-518 l-6 -74 18 80 c64 278 244 501 495 615 275 124 618 91 860 -84 187 -134
304 -315 353 -546 l14 -65 -5 65 c-6 83 -11 110 -37 190 -94 293 -340 513
-645 580 -77 17 -253 24 -308 13z"/>
<path d="M880 1484 c-69 -7 -150 -15 -180 -18 -30 -3 -63 -5 -73 -6 -16 0 -17
-18 -11 -325 l6 -325 -69 -1 c-37 -1 -79 -1 -93 0 -23 1 -23 0 -5 -8 11 -4 58
-8 104 -7 l84 1 3 152 c2 84 8 162 14 172 13 25 13 54 0 46 -6 -4 -10 5 -10
20 0 14 4 24 9 21 10 -7 20 23 14 42 -3 6 -9 10 -14 6 -5 -3 -9 0 -9 5 0 6 8
11 18 11 9 0 26 7 36 15 20 15 20 15 0 15 -11 0 -25 -5 -32 -12 -6 -6 -15 -8
-19 -3 -5 4 -2 10 5 12 10 4 10 8 2 19 -16 18 -4 33 20 27 11 -3 20 0 20 6 0
6 12 8 33 5 30 -5 31 -5 13 10 -23 19 -43 21 -48 5 -6 -17 -45 -2 -45 17 0 10
7 14 19 11 10 -3 18 -1 18 4 0 6 8 5 19 -1 25 -13 34 -13 26 0 -8 13 11 13 35
0 16 -9 19 -8 14 7 -5 16 -4 16 10 -1 9 -11 16 -23 16 -28 0 -4 4 -8 8 -8 5 0
8 10 8 21 -1 12 5 24 12 26 8 3 12 -6 12 -26 0 -16 5 -33 11 -37 8 -5 10 4 7
30 -2 20 0 36 4 36 4 0 8 -9 8 -20 0 -11 5 -20 10 -20 6 0 10 9 10 20 0 11 6
20 13 21 6 0 20 2 29 4 14 3 15 -1 7 -22 -12 -31 -11 -36 2 -28 5 4 15 19 21
33 l10 27 11 -23 c8 -17 8 -32 -1 -55 -15 -40 -8 -46 19 -16 15 17 19 19 15 7
-7 -22 12 -24 20 -3 4 8 17 15 29 15 18 0 25 -7 30 -30 8 -36 26 -31 19 5 -2
14 0 25 6 25 5 0 10 -9 10 -20 0 -11 5 -20 11 -20 22 0 3 -35 -20 -36 -17 -1
-27 6 -35 27 -6 16 -14 29 -18 29 -14 0 -9 -28 8 -45 15 -15 15 -17 -2 -30
-23 -17 -34 -19 -34 -5 0 6 5 10 10 10 14 0 12 13 -4 36 -8 10 -18 16 -22 12
-4 -4 -1 -14 6 -22 10 -13 7 -20 -17 -40 -15 -13 -25 -28 -21 -32 5 -4 17 1
28 11 28 25 25 3 -3 -23 l-22 -21 -25 26 c-47 49 -65 56 -94 38 -14 -9 -37
-37 -51 -61 -14 -24 -27 -44 -29 -44 -2 0 -22 7 -45 15 -22 8 -41 11 -41 6 0
-4 17 -14 39 -21 76 -25 132 -101 136 -185 1 -35 -11 -101 -30 -170 -6 -19 -2
-21 39 -20 l46 0 0 65 c0 67 13 99 59 148 22 22 41 29 41 14 0 -11 51 -35 57
-28 7 7 -59 46 -77 46 -8 0 -26 -9 -40 -20 -14 -11 -28 -20 -31 -20 -9 0 7 73
28 130 26 71 73 136 73 102 0 -5 13 -7 29 -4 16 2 32 -1 35 -7 4 -6 2 -11 -3
-11 -6 0 -11 -4 -11 -10 0 -5 7 -10 15 -10 8 0 15 8 15 18 0 14 2 15 9 2 13
-19 6 -27 -29 -32 -18 -3 -35 1 -41 9 -9 10 -8 13 5 13 9 0 16 5 16 10 0 6 -6
10 -12 9 -19 -1 -55 -17 -40 -18 6 -1 12 -5 12 -11 0 -5 -3 -9 -7 -9 -5 1 -15
1 -23 0 -13 -1 -13 -2 0 -11 13 -8 12 -10 -2 -10 -20 0 -25 -20 -5 -21 6 0 3
-4 -8 -8 -15 -6 -5 -10 38 -15 60 -8 83 -2 57 14 -12 8 -10 10 8 10 13 0 21 4
17 9 -3 5 -1 12 5 16 6 4 10 -13 10 -44 0 -39 -4 -51 -15 -51 -8 0 -15 -5 -15
-11 0 -6 7 -9 15 -5 10 4 15 -1 15 -16 0 -17 -3 -18 -15 -8 -8 6 -22 10 -32 7
-14 -3 -12 -7 12 -18 26 -12 30 -19 29 -49 -1 -19 -3 -64 -5 -100 l-2 -65 84
-1 c46 -1 90 2 98 6 9 5 1 8 -20 7 -109 0 -108 0 -104 36 2 17 6 61 10 97 3
36 7 79 9 95 3 17 7 64 11 105 3 41 8 86 10 100 2 14 6 64 10 111 l6 86 -53 1
c-110 0 -120 2 -115 15 2 6 1 21 -3 32 -8 24 -30 25 -200 9z m277 -228 c1 -1
0 -12 -4 -24 -5 -22 -33 -31 -33 -11 0 5 -5 7 -12 3 -7 -5 -8 -3 -4 5 5 7 14
10 22 7 7 -3 16 -1 19 4 4 6 -7 10 -24 10 -21 0 -31 -5 -31 -15 0 -8 -7 -15
-15 -15 -22 0 -18 15 8 33 17 12 59 14 74 3z m-216 -17 c52 -37 54 -52 18
-132 l-32 -72 -56 55 c-54 52 -56 56 -38 70 10 8 19 22 20 30 2 13 45 66 55
69 2 1 17 -8 33 -20z m159 -99 c13 -8 13 -10 -2 -10 -11 0 -15 -5 -12 -15 4
-9 0 -15 -10 -15 -17 0 -20 9 -10 34 7 18 13 19 34 6z"/>
<path d="M900 1222 c-14 -11 -19 -21 -13 -25 11 -7 50 30 41 38 -3 3 -16 -3
-28 -13z"/>
<path d="M925 1194 c-9 -9 -13 -19 -10 -22 3 -3 15 4 28 16 12 12 16 22 10 22
-6 0 -19 -7 -28 -16z"/>
<path d="M924 1145 c-22 -25 -36 -45 -30 -45 16 1 46 26 46 39 0 6 3 11 8 11
4 0 13 9 20 20 22 35 -2 22 -44 -25z"/>
<path d="M855 1160 c-27 -30 -12 -34 15 -5 13 14 19 25 13 25 -5 0 -18 -9 -28
-20z"/>
<path d="M875 1140 c-15 -16 -15 -20 -3 -20 8 0 23 9 33 20 15 16 15 20 3 20
-8 0 -23 -9 -33 -20z"/>
<path d="M910 1095 c-7 -8 -8 -15 -2 -15 5 0 15 7 22 15 7 8 8 15 2 15 -5 0
-15 -7 -22 -15z"/>
<path d="M910 1385 c0 -8 -9 -23 -20 -32 -21 -18 -27 -53 -10 -53 6 0 10 7 10
15 0 8 9 23 20 32 21 18 27 53 10 53 -5 0 -10 -7 -10 -15z"/>
<path d="M761 1381 c3 -8 16 -21 29 -30 18 -12 22 -13 19 -2 -3 8 -16 21 -29
30 -18 12 -22 13 -19 2z"/>
<path d="M966 1371 c-10 -11 -16 -26 -14 -33 3 -7 -4 -21 -14 -32 -10 -11 -16
-22 -13 -24 7 -8 45 30 43 42 -1 6 4 22 11 34 16 31 9 38 -13 13z"/>
<path d="M830 1343 c0 -10 5 -25 10 -33 8 -12 10 -9 10 12 0 15 -4 30 -10 33
-5 3 -10 -2 -10 -12z"/>
<path d="M765 1330 c-4 -6 1 -12 9 -15 9 -3 23 -7 31 -10 25 -7 17 11 -10 23
-15 7 -26 8 -30 2z"/>
<path d="M912 1328 c-14 -14 -16 -42 -2 -33 14 9 32 45 22 45 -4 0 -13 -5 -20
-12z"/>
<path d="M683 1324 c11 -11 57 -13 63 -3 3 5 -12 9 -32 9 -21 0 -34 -3 -31 -6z"/>
<path d="M966 1291 c-11 -12 -16 -24 -12 -28 9 -9 39 22 34 37 -2 7 -10 4 -22
-9z"/>
<path d="M730 1285 l-25 -14 26 -1 c15 0 32 7 39 15 17 20 -5 20 -40 0z"/>
<path d="M786 1281 c-10 -16 21 -20 41 -6 17 13 16 14 -9 15 -15 0 -29 -4 -32
-9z"/>
<path d="M990 1265 c-13 -14 -19 -25 -13 -25 12 0 48 38 41 45 -2 3 -15 -6
-28 -20z"/>
<path d="M833 1258 c-13 -6 -23 -15 -23 -20 0 -14 16 -9 41 12 26 21 17 25
-18 8z"/>
<path d="M690 1225 c0 -14 5 -25 10 -25 6 0 10 11 10 25 0 14 -4 25 -10 25 -5
0 -10 -11 -10 -25z"/>
<path d="M729 1245 c0 -6 -2 -20 -5 -32 -2 -13 0 -23 5 -23 13 0 22 43 11 54
-6 6 -10 6 -11 1z"/>
<path d="M762 1216 c-13 -31 -8 -46 9 -29 6 6 9 21 7 34 -4 24 -5 23 -16 -5z"/>
<path d="M796 1204 c-11 -27 -7 -37 9 -24 16 14 20 40 6 40 -5 0 -12 -7 -15
-16z"/>
<path d="M679 1134 c-11 -30 -3 -46 11 -24 10 16 13 50 5 50 -3 0 -10 -12 -16
-26z"/>
<path d="M707 1128 c-4 -12 -4 -24 -1 -27 6 -7 24 20 24 37 0 21 -17 13 -23
-10z"/>
<path d="M735 1119 c-6 -19 0 -38 9 -28 10 12 16 49 7 49 -5 0 -13 -9 -16 -21z"/>
<path d="M762 1105 c-7 -15 -8 -26 -2 -30 6 -4 13 2 17 12 3 10 8 21 10 25 2
4 -1 9 -5 12 -5 3 -14 -6 -20 -19z"/>
<path d="M793 1090 c-19 -29 -17 -48 3 -28 9 8 14 23 12 32 -3 14 -5 14 -15
-4z"/>
<path d="M1003 1080 c-13 -5 -23 -14 -23 -19 0 -13 37 -2 51 15 13 16 4 17
-28 4z"/>
<path d="M810 1061 c-16 -30 -12 -36 10 -16 21 19 26 35 10 35 -5 0 -14 -9
-20 -19z"/>
<path d="M1057 1062 c-25 -27 -21 -35 8 -16 25 16 33 34 17 34 -5 0 -16 -8
-25 -18z"/>
<path d="M1091 1056 c-22 -24 -22 -24 -3 -19 11 3 28 14 38 24 27 30 -7 25
-35 -5z"/>
<path d="M837 1042 c-19 -21 -22 -32 -7 -32 10 0 34 39 27 46 -2 2 -11 -4 -20
-14z"/>
<path d="M994 1036 c-16 -14 -24 -25 -19 -25 15 -1 61 37 54 44 -4 3 -20 -5
-35 -19z"/>
<path d="M34 778 c24 -249 166 -486 375 -627 99 -67 190 -105 331 -139 64 -15
253 -12 335 5 199 42 393 161 509 312 103 134 165 288 183 451 6 61 -6 64 -14
3 -17 -130 -107 -306 -220 -429 -116 -127 -324 -237 -497 -262 -96 -13 -266
-5 -351 17 -187 50 -364 167 -483 321 -56 72 -133 237 -147 315 -4 22 -9 51
-12 65 -9 52 -15 32 -9 -32z"/>
<path d="M328 693 c-3 -4 -4 -30 -3 -58 2 -61 -9 -79 -37 -64 -16 9 -19 8 -16
-3 7 -21 55 -22 62 -1 14 44 8 154 -6 126z"/>
<path d="M410 690 c-7 -4 -10 -32 -8 -71 l3 -64 43 -3 c25 -2 42 1 42 7 0 6
-3 10 -7 10 -5 -1 -20 -1 -35 0 -40 2 -38 31 2 31 17 0 30 4 30 10 0 5 -12 8
-27 7 -25 -2 -28 2 -31 31 -3 31 -2 32 32 32 20 0 36 4 36 10 0 10 -63 11 -80
0z"/>
<path d="M572 690 c-22 -9 -42 -46 -42 -76 0 -28 47 -64 83 -64 39 0 57 15 57
47 0 19 -5 23 -30 23 -16 0 -30 -4 -30 -9 0 -6 9 -8 20 -6 14 3 20 -2 20 -16
0 -19 -13 -23 -55 -19 -42 4 -60 64 -28 95 12 13 27 16 57 12 37 -5 39 -4 22
9 -22 16 -41 17 -74 4z"/>
<path d="M764 689 c-3 -5 6 -9 19 -9 22 0 23 -3 22 -55 0 -30 3 -61 7 -68 9
-14 9 -12 10 66 0 54 1 57 25 57 13 0 22 4 19 9 -3 4 -26 8 -51 8 -25 0 -48
-4 -51 -8z"/>
<path d="M933 688 c-12 -6 -27 -23 -33 -37 -30 -74 64 -136 118 -78 29 31 28
72 -3 102 -26 27 -47 30 -82 13z m69 -20 c20 -17 28 -51 16 -72 -28 -50 -107
-29 -108 28 0 45 57 72 92 44z"/>
<path d="M1079 695 c-8 -8 32 -135 42 -135 4 0 16 23 27 51 l19 52 18 -52 c11
-28 22 -51 25 -51 8 0 51 133 45 138 -6 6 -35 -63 -35 -83 0 -29 -17 -15 -29
25 -16 55 -27 57 -46 5 -17 -43 -35 -52 -35 -17 -1 25 -24 75 -31 67z"/>
<path d="M1312 691 c-8 -4 -11 -31 -9 -72 l2 -64 43 -3 c27 -2 42 1 42 9 0 7
-13 10 -35 7 -29 -3 -35 -1 -35 14 0 13 8 18 31 18 18 0 28 4 24 10 -4 6 -12
10 -18 9 -29 -4 -37 3 -37 31 0 28 3 30 35 30 19 0 35 4 35 9 0 11 -62 12 -78
2z"/>
<path d="M1447 693 c-9 -14 -5 -143 4 -143 5 0 9 9 9 20 0 27 31 26 48 -1 7
-12 16 -18 19 -15 3 3 0 12 -6 20 -10 12 -9 20 2 38 15 24 15 54 0 69 -13 13
-70 22 -76 12z m61 -25 c19 -19 14 -48 -10 -57 -31 -12 -38 -6 -38 35 0 26 4
34 18 34 10 0 23 -5 30 -12z"/>
<path d="M409 459 c-13 -11 -18 -18 -11 -14 6 3 12 2 12 -4 0 -5 -6 -11 -12
-14 -7 -2 4 -8 25 -12 31 -6 42 -4 55 11 16 17 16 17 0 5 -11 -8 -18 -9 -18
-3 0 6 5 14 10 17 19 12 10 22 -16 17 -19 -3 -25 -1 -20 7 11 17 1 13 -25 -10z
m30 -8 c14 -9 7 -31 -10 -31 -6 0 -7 5 -3 11 3 6 0 15 -7 20 -8 5 -9 9 -4 9 6
0 16 -4 24 -9z"/>
<path d="M562 468 c-27 -27 -6 -68 35 -68 29 0 48 33 33 60 -12 22 -49 27 -68
8z m49 -42 c-16 -19 -41 -10 -41 14 0 24 21 31 39 14 11 -10 12 -16 2 -28z"/>
<path d="M660 440 c0 -22 5 -40 10 -40 6 0 10 12 10 26 l0 27 21 -27 c29 -36
39 -33 39 14 0 22 -4 40 -10 40 -5 0 -10 -10 -10 -22 l-1 -23 -18 23 c-28 33
-41 27 -41 -18z"/>
<path d="M769 475 c-1 -3 -1 -14 -1 -25 0 -47 2 -50 33 -50 18 0 28 4 24 10
-4 6 -10 8 -14 6 -4 -3 -13 -1 -21 5 -11 6 -8 9 13 9 33 0 27 20 -6 20 -19 1
-18 3 8 15 l30 13 -32 1 c-18 1 -33 -1 -34 -4z"/>
<path d="M920 476 c0 -2 -6 -19 -14 -37 l-14 -34 42 -1 43 -1 -16 38 c-9 22
-22 39 -28 39 -7 0 -13 -2 -13 -4z m20 -36 c0 -5 -5 -10 -11 -10 -5 0 -7 5 -4
10 3 6 8 10 11 10 2 0 4 -4 4 -10z"/>
<path d="M1002 468 c-15 -15 -15 -41 0 -56 15 -15 55 -16 64 -1 4 7 -4 10 -22
7 -24 -2 -30 1 -32 20 -3 22 4 26 42 22 11 -1 15 3 12 9 -9 15 -49 14 -64 -1z"/>
<path d="M1101 449 c-15 -45 -15 -44 28 -44 l39 0 -14 33 c-8 19 -14 36 -14
38 0 2 -6 4 -14 4 -8 0 -19 -14 -25 -31z m34 -9 c3 -5 1 -10 -4 -10 -6 0 -11
5 -11 10 0 6 2 10 4 10 3 0 8 -4 11 -10z"/>
<path d="M1189 456 c-9 -20 -9 -29 1 -41 15 -18 56 -20 66 -3 5 7 0 9 -14 6
-28 -8 -49 16 -32 37 9 11 17 12 32 4 16 -9 19 -8 16 3 -3 7 -17 14 -31 16
-21 3 -30 -3 -38 -22z"/>
<path d="M1284 440 c0 -38 15 -58 17 -22 0 9 2 27 3 40 2 12 -3 22 -9 22 -7 0
-11 -16 -11 -40z"/>
<path d="M1342 447 c-16 -45 -17 -42 28 -42 22 0 40 0 40 1 0 1 -7 18 -15 38
-19 45 -37 46 -53 3z m38 -7 c0 -5 -4 -10 -10 -10 -5 0 -10 5 -10 10 0 6 5 10
10 10 6 0 10 -4 10 -10z"/>
</g>
</svg>
